<?xml version="1.0" encoding="UTF-8" standalone="no"?>
<svg
   viewBox="0 0 136.97253 51.66264"
   height="51.66264"
   width="136.97253"
   xml:space="preserve"
   version="1.1"
   id="svg2"
   sodipodi:docname="bfh_wide.svg"
   inkscape:version="1.1.1 (3bf5ae0d25, 2021-09-20)"
   xmlns:inkscape="http://www.inkscape.org/namespaces/inkscape"
   xmlns:sodipodi="http://sodipodi.sourceforge.net/DTD/sodipodi-0.dtd"
   xmlns="http://www.w3.org/2000/svg"
   xmlns:svg="http://www.w3.org/2000/svg"
   xmlns:rdf="http://www.w3.org/1999/02/22-rdf-syntax-ns#"
   xmlns:cc="http://creativecommons.org/ns#"
   xmlns:dc="http://purl.org/dc/elements/1.1/"><sodipodi:namedview
     id="namedview30"
     pagecolor="#ffffff"
     bordercolor="#666666"
     borderopacity="1.0"
     inkscape:pageshadow="2"
     inkscape:pageopacity="0.0"
     inkscape:pagecheckerboard="0"
     showgrid="false"
     inkscape:zoom="7.4437898"
     inkscape:cx="55.818341"
     inkscape:cy="27.271055"
     inkscape:window-width="1916"
     inkscape:window-height="1041"
     inkscape:window-x="0"
     inkscape:window-y="18"
     inkscape:window-maximized="1"
     inkscape:current-layer="g12"
     inkscape:snap-page="true" /><metadata
     id="metadata8"><rdf:RDF><cc:Work
         rdf:about=""><dc:format>image/svg+xml</dc:format><dc:type
           rdf:resource="http://purl.org/dc/dcmitype/StillImage" /><dc:title /></cc:Work></rdf:RDF></metadata><defs
     id="defs6" /><g
     transform="matrix(1.25,0,0,-1.25,-0.79302911,87.24794)"
     id="g10"><g
       transform="scale(0.1)"
       id="g12"><path
         id="path_B"
         style="fill:#376177;fill-opacity:1;fill-rule:nonzero;stroke:none;stroke-width:0.763704"
         d="m 148.08915,697.98352 c 59.2252,0 107.26139,-48.01175 107.26139,-107.2614 0,-39.79048 -18.44573,-74.32057 -48.28363,-93.03741 -0.58423,-0.3704 -1.00808,-0.92485 -1.00808,-1.6496 0,-1.31281 1.03787,-1.64426 1.10966,-1.67405 38.70755,-14.98462 62.99637,-54.51239 62.99637,-100.41479 0,-59.26186 -48.04764,-107.28278 -107.27896,-107.28278 l -141.652425,0.0298 c -8.221745,0 -14.8892421,6.67399 -14.8892421,14.8777 v 381.52643 c 0,8.22508 6.6674971,14.8861 14.8892421,14.8861 H 148.08915" /><path
         id="pathH"
         style="fill:#fbbc09;fill-opacity:1;fill-rule:nonzero;stroke:none;stroke-width:0.763704"
         d="m 96.225278,359.51088 c -1.890934,0 -3.507695,1.61982 -3.507695,3.50845 v 86.01211 c 0,1.88787 1.616761,3.50846 3.507695,3.50846 h 5.414652 c 1.88559,0 3.5054,-1.62059 3.5054,-3.50846 v -38.10499 h 33.48688 v 38.10499 c 0,1.88787 1.61676,3.50846 3.50846,3.50846 h 5.39632 c 1.89093,0 3.50845,-1.62059 3.50845,-3.50846 v -86.01211 c 0,-1.88863 -1.61752,-3.50845 -3.50845,-3.50845 h -5.39632 c -1.8917,0 -3.50846,1.61982 -3.50846,3.50845 v 36.977 h -33.48688 v -36.977 c 0,-1.88863 -1.61981,-3.50845 -3.5054,-3.50845 h -5.414652" /><path
         id="pathF"
         style="fill:#fbbc09;fill-opacity:1;fill-rule:nonzero;stroke:none;stroke-width:0.763704"
         d="m 95.876264,532.44773 c -1.884829,0 -3.52297,1.63508 -3.52297,3.52372 v 86.02662 c 0,1.88864 1.638141,3.50846 3.52297,3.50846 h 51.735566 c 1.88787,0 3.50769,-1.61982 3.50769,-3.50846 v -3.64516 c 0,-1.88558 -1.61982,-3.50845 -3.50769,-3.50845 h -42.82467 v -29.89747 h 36.48212 c 1.88863,0 3.50845,-1.63509 3.50845,-3.52677 v -3.64212 c 0,-1.89168 -1.61982,-3.50844 -3.50845,-3.50844 h -36.48212 v -38.29821 c 0,-1.88864 -1.61981,-3.52372 -3.5077,-3.52372 h -5.403196" /><path
         id="path20"
         style="fill:#376177;fill-opacity:1;fill-rule:nonzero;stroke:none;stroke-width:1.43621"
         d="m 367.34675,423.64684 h 12.07312 c 10.35076,0 14.01424,3.98333 14.01424,13.04393 0,8.94759 -3.33803,13.04365 -13.58783,13.04365 h -12.49953 z m -0.11217,34.50233 h 12.29189 c 8.72942,0 10.6762,3.65803 10.6762,11.42792 0,7.75984 -2.48536,11.75968 -11.21478,11.75968 h -11.75331 z m -7.00715,-42.80535 c -1.50913,0 -2.80509,1.2903 -2.80509,2.80507 v 68.68569 c 0,1.49797 1.29596,2.79917 2.80509,2.79917 h 19.08031 c 15.64118,0 21.3468,-8.20219 21.3468,-19.84266 0,-7.75985 -1.93557,-11.9665 -9.05486,-14.97967 7.22585,-2.04803 12.3985,-7.65787 12.3985,-18.65348 0,-14.77198 -9.70562,-20.81412 -23.50672,-20.81412 h -20.26403" /><path
         id="path22"
         style="fill:#376177;fill-opacity:1;fill-rule:nonzero;stroke:none;stroke-width:1.43621"
         d="m 441.59768,463.44017 c -6.25542,0 -10.13763,-3.24296 -10.88949,-16.19182 h 21.45898 c 0,12.41602 -2.80507,16.19182 -10.56949,16.19182 z m 1.18371,-49.49895 c -14.1264,0 -22.10411,8.19085 -22.10411,28.47141 0,20.47747 8.40958,28.34358 21.13912,28.34358 12.82493,0 20.15748,-7.31604 20.15748,-26.84561 v -1.93458 c 0,-0.96512 -0.75745,-1.72345 -1.7223,-1.72345 h -29.64995 c 0.20767,-14.77113 3.45035,-18.4458 12.3985,-18.4458 4.63407,0 7.65802,1.40245 10.45188,3.35484 1.30148,0.96498 3.1305,0.64514 3.99437,-0.54979 l 1.7223,-2.25528 c 0.86403,-1.19507 0.6453,-3.02954 -0.64514,-3.88795 -4.41519,-3.12477 -8.94816,-4.52737 -15.74215,-4.52737" /><path
         id="path24"
         style="fill:#376177;fill-opacity:1;fill-rule:nonzero;stroke:none;stroke-width:1.43621"
         d="m 483.55624,415.34382 c -1.50918,0 -2.81067,1.2903 -2.81067,2.80507 v 48.41647 c 0,1.49797 1.30149,2.79342 2.81067,2.79342 h 1.61013 c 1.62134,0 3.02394,-1.18343 3.34364,-2.79342 l 0.97058,-4.85295 c 3.98893,4.95349 8.94831,8.623 15.204,8.623 0.31884,0 0.75688,0 1.07716,-0.11205 0.43661,-0.11344 0.86316,-0.53427 0.75688,-0.96514 l -0.75688,-7.54583 c -0.10627,-0.75832 -0.8646,-1.40318 -1.72201,-1.30695 -0.53859,0.11205 -1.19063,0.11205 -1.7292,0.11205 -4.9588,0 -8.30244,-1.83547 -12.29137,-5.49781 V 418.1489 c 0,-1.51477 -1.29028,-2.80507 -2.79945,-2.80507 h -3.66348" /><path
         id="path26"
         style="fill:#376177;fill-opacity:1;fill-rule:nonzero;stroke:none;stroke-width:1.43621"
         d="m 525.95198,415.34382 c -1.50803,0 -2.80493,1.2903 -2.80493,2.80507 v 48.41647 c 0,1.49797 1.2969,2.79342 2.80493,2.79342 h 1.60998 c 1.62148,0 3.02466,-1.18343 3.34924,-2.69288 l 0.85886,-3.98835 c 4.75242,4.73949 10.1382,8.07866 16.49486,8.07866 7.76415,0 13.0537,-3.98403 13.0537,-13.15711 v -39.45021 c 0,-1.51477 -1.3012,-2.80507 -2.80491,-2.80507 h -3.66807 c -1.50947,0 -2.80062,1.2903 -2.80062,2.80507 v 36.55051 c 0,6.14267 -1.72201,7.86468 -6.57496,7.86468 -4.31438,0 -9.16733,-3.01173 -13.05514,-6.46294 v -37.95225 c 0,-1.51477 -1.28397,-2.80507 -2.79343,-2.80507 h -3.66951" /><path
         id="path28"
         style="fill:#376177;fill-opacity:1;fill-rule:nonzero;stroke:none;stroke-width:1.43621"
         d="m 600.99965,463.44017 c -6.24895,0 -10.13102,-3.24296 -10.88934,-16.19182 h 21.45983 c 0,12.41602 -2.80491,16.19182 -10.57049,16.19182 z m 1.18918,-49.49895 c -14.12656,0 -22.10326,8.19085 -22.10326,28.47141 0,20.47747 8.41475,28.34358 21.13381,28.34358 12.82392,0 20.16295,-7.31604 20.16295,-26.84561 v -1.93458 c 0,-0.96512 -0.75832,-1.72345 -1.72776,-1.72345 h -29.6448 c 0.21257,-14.77113 3.44403,-18.4458 12.39879,-18.4458 4.63322,0 7.64639,1.40245 10.4513,3.35484 1.29546,0.96498 3.13094,0.64514 3.98835,-0.54979 l 1.72919,-2.25528 c 0.86317,-1.19507 0.64486,-3.02954 -0.64629,-3.88795 -4.42639,-3.12477 -8.94758,-4.52737 -15.74228,-4.52737" /><path
         id="path30"
         style="fill:#376177;fill-opacity:1;fill-rule:nonzero;stroke:none;stroke-width:1.43621"
         d="m 642.96999,415.34382 c -1.50946,0 -2.80493,1.2903 -2.80493,2.80507 v 48.41647 c 0,1.49797 1.29547,2.79342 2.80493,2.79342 h 1.60998 c 1.62148,0 3.02323,-1.18343 3.34349,-2.79342 l 0.97089,-4.85295 c 3.98835,4.95349 8.94758,8.623 15.2037,8.623 0.32028,0 0.75689,0 1.07717,-0.11205 0.43804,-0.11344 0.86315,-0.53427 0.75687,-0.96514 l -0.75687,-7.54583 c -0.10049,-0.75832 -0.86461,-1.40318 -1.72203,-1.30695 -0.53857,0.11205 -1.18917,0.11205 -1.72776,0.11205 -4.96065,0 -8.30416,-1.83547 -12.29251,-5.49781 V 418.1489 c 0,-1.51477 -1.29115,-2.80507 -2.79916,-2.80507 h -3.66377" /><path
         id="path32"
         style="fill:#376177;fill-opacity:1;fill-rule:nonzero;stroke:none;stroke-width:1.43621"
         d="m 361.29895,286.08495 c -1.50914,0 -2.79387,1.29035 -2.79387,2.8051 v 68.68556 c 0,1.49797 1.28473,2.79946 2.79387,2.79946 h 31.38346 c 1.50916,0 2.79945,-1.30149 2.79945,-2.79946 v -2.92282 c 0,-1.49797 -1.29029,-2.80521 -2.79945,-2.80521 h -24.26413 v -22.51933 h 19.19244 c 1.50917,0 2.8052,-1.30708 2.8052,-2.80505 v -2.92283 c 0,-1.49797 -1.29603,-2.8052 -2.8052,-2.8052 h -19.19244 v -31.90512 c 0,-1.51475 -1.29033,-2.8051 -2.79947,-2.8051 h -4.31986" /><path
         id="path34"
         style="fill:#376177;fill-opacity:1;fill-rule:nonzero;stroke:none;stroke-width:1.43621"
         d="m 424.43612,292.01493 c 5.27907,0 9.268,3.56807 11.85994,6.46855 v 14.34532 h -3.23709 c -13.58797,0 -16.17429,-3.45034 -16.17429,-11.3271 0,-7.11367 2.26103,-9.48677 7.55144,-9.48677 z m -1.18386,-7.33252 c -10.35076,0 -16.28633,5.70557 -16.28633,16.81929 0,12.29755 7.22586,18.00878 24.90918,18.00878 h 4.42095 v 4.20206 c 0,6.03652 -0.75747,9.70561 -7.76459,9.70561 -4.63393,0 -9.16703,-1.62693 -13.26253,-3.66909 -1.40246,-0.65074 -3.12476,-0.10095 -3.77005,1.30164 l -1.08275,2.0476 c -0.64514,1.4026 -0.11216,3.12491 1.29044,3.88797 4.8528,2.58058 10.46292,4.51055 17.78989,4.51055 10.56963,0 16.06759,-4.73504 16.06759,-16.26951 v -36.33726 c 0,-1.51475 -1.2903,-2.8051 -2.80507,-2.8051 h -1.61013 c -1.62134,0 -3.1305,1.07715 -3.56252,2.6929 l -0.75171,2.69288 c -3.13051,-3.45026 -7.65801,-6.78832 -13.58237,-6.78832" /><path
         id="path36"
         style="fill:#376177;fill-opacity:1;fill-rule:nonzero;stroke:none;stroke-width:1.43621"
         d="m 485.80591,284.68241 c -13.8011,0 -21.45897,9.06045 -21.45897,28.47169 0,20.5895 8.19644,28.34272 21.56554,28.34272 5.17265,0 9.27375,-1.17812 13.15036,-4.30302 1.3015,-0.97059 1.40821,-2.6929 0.43202,-3.88781 l -1.72805,-2.15992 c -1.07142,-1.17813 -2.79386,-1.29043 -3.98318,-0.31985 -2.37866,1.83462 -4.63968,2.80506 -8.19646,2.80506 -8.19083,0 -11.32134,-3.55117 -11.32134,-20.47718 0,-16.60614 3.4558,-20.60621 12.07866,-20.60621 3.33804,0 5.60467,1.29597 7.86555,3.1305 1.18932,0.96495 3.02394,0.86957 3.99438,-0.32539 l 1.94118,-2.04212 c 1.07199,-1.08276 0.96427,-2.9229 -0.21874,-3.88786 -3.55691,-3.12488 -7.9777,-4.74061 -14.12095,-4.74061" /><path
         id="path38"
         style="fill:#376177;fill-opacity:1;fill-rule:nonzero;stroke:none;stroke-width:1.43621"
         d="m 521.40781,286.08495 c -1.50801,0 -2.80491,1.29035 -2.80491,2.8051 v 72.45562 c 0,1.50356 1.2969,2.80506 2.80491,2.80506 h 3.66952 c 1.50945,0 2.79342,-1.3015 2.79342,-2.80506 V 334.0689 c 4.75242,4.41518 9.60537,7.42792 15.84857,7.42792 7.76558,0 13.05514,-3.98318 13.05514,-13.15595 v -39.45082 c 0,-1.51475 -1.29546,-2.8051 -2.80492,-2.8051 h -3.66951 c -1.50802,0 -2.79917,1.29035 -2.79917,2.8051 v 36.55039 c 0,6.14324 -1.72202,7.86555 -6.57497,7.86555 -4.31437,0 -9.16731,-3.01274 -13.05514,-6.46295 v -37.95299 c 0,-1.51475 -1.28397,-2.8051 -2.79342,-2.8051 h -3.66952" /><path
         id="path40"
         style="fill:#376177;fill-opacity:1;fill-rule:nonzero;stroke:none;stroke-width:1.43621"
         d="m 581.16272,286.08495 c -1.51519,0 -2.80491,1.29035 -2.80491,2.8051 v 72.45562 c 0,1.50356 1.28972,2.80506 2.80491,2.80506 h 3.66377 c 1.51377,0 2.80492,-1.3015 2.80492,-2.80506 V 334.0689 c 4.74523,4.41518 9.59819,7.42792 15.84857,7.42792 7.7584,0 13.0494,-3.98318 13.0494,-13.15595 v -39.45082 c 0,-1.51475 -1.2969,-2.8051 -2.80492,-2.8051 h -3.66951 c -1.50947,0 -2.80492,1.29035 -2.80492,2.8051 v 36.55039 c 0,6.14324 -1.72202,7.86555 -6.56923,7.86555 -4.31436,0 -9.16731,-3.01274 -13.04939,-6.46295 v -37.95299 c 0,-1.51475 -1.29115,-2.8051 -2.80492,-2.8051 h -3.66377" /><path
         id="path42"
         style="fill:#376177;fill-opacity:1;fill-rule:nonzero;stroke:none;stroke-width:1.43621"
         d="m 657.46134,292.01493 c 8.20219,0 12.07851,4.42082 12.07851,21.02701 0,16.70712 -3.98835,21.13913 -12.1848,21.13913 -8.19644,0 -12.0742,-4.32543 -12.0742,-21.02697 0,-16.60614 3.98978,-21.13917 12.18049,-21.13917 z m 0,-7.33252 c -13.15568,0 -22.1047,8.19089 -22.1047,28.47169 0,20.26405 8.74077,28.34272 21.88495,28.34272 13.16143,0 22.21672,-8.07867 22.21672,-28.34272 0,-20.2808 -8.8413,-28.47169 -21.99697,-28.47169" /><path
         id="path44"
         style="fill:#376177;fill-opacity:1;fill-rule:nonzero;stroke:none;stroke-width:1.43621"
         d="m 717.21481,284.68241 c -13.79478,0 -21.45265,9.06045 -21.45265,28.47169 0,20.5895 8.19644,28.34272 21.55894,28.34272 5.17896,0 9.27359,-1.17812 13.15711,-4.30302 1.2897,-0.97059 1.40173,-2.6929 0.43659,-3.88781 l -1.72774,-2.15992 c -1.07717,-1.17813 -2.80493,-1.29043 -3.98837,-0.31985 -2.37835,1.83462 -4.63464,2.80506 -8.19644,2.80506 -8.19069,0 -11.32163,-3.55117 -11.32163,-20.47718 0,-16.60614 3.44977,-20.60621 12.07852,-20.60621 3.33774,0 5.60408,1.29597 7.86611,3.1305 1.18919,0.96495 3.02322,0.86957 3.9941,-0.32539 l 1.94176,-2.04212 c 1.07715,-1.08276 0.96369,-2.9229 -0.21975,-3.88786 -3.55605,-3.12488 -7.97814,-4.74061 -14.12655,-4.74061" /><path
         id="path46"
         style="fill:#376177;fill-opacity:1;fill-rule:nonzero;stroke:none;stroke-width:1.43621"
         d="m 752.82849,286.08495 c -1.50946,0 -2.80491,1.29035 -2.80491,2.8051 v 72.45562 c 0,1.50356 1.29545,2.80506 2.80491,2.80506 h 3.66952 c 1.50945,0 2.79342,-1.3015 2.79342,-2.80506 V 334.0689 c 4.75241,4.41518 9.60537,7.42792 15.84857,7.42792 7.76558,0 13.05514,-3.98318 13.05514,-13.15595 v -39.45082 c 0,-1.51475 -1.29546,-2.8051 -2.80492,-2.8051 h -3.66951 c -1.50803,0 -2.79918,1.29035 -2.79918,2.8051 v 36.55039 c 0,6.14324 -1.72201,7.86555 -6.57496,7.86555 -4.31438,0 -9.16733,-3.01274 -13.05514,-6.46295 v -37.95299 c 0,-1.51475 -1.28397,-2.8051 -2.79342,-2.8051 h -3.66952" /><path
         id="path48"
         style="fill:#376177;fill-opacity:1;fill-rule:nonzero;stroke:none;stroke-width:1.43621"
         d="m 822.56937,284.68241 c -5.93011,0 -11.64192,1.93552 -15.63027,4.20764 -1.29546,0.85275 -1.72201,2.58068 -0.97662,3.88786 l 1.19492,2.04211 c 0.75257,1.40255 2.47459,1.82332 3.77005,1.08277 3.7758,-2.15993 7.65212,-3.45026 12.07852,-3.45026 7.32754,0 9.59388,2.90047 9.59388,7.96642 0,6.04787 -2.80491,7.22039 -11.43366,9.60464 -7.54584,2.04775 -13.80054,6.03108 -13.80054,16.70714 0,7.87115 5.07126,14.76609 16.93148,14.76609 5.17178,0 9.0596,-0.85282 12.51081,-2.25527 1.40174,-0.64515 2.04803,-2.36759 1.40174,-3.77565 l -0.97519,-2.15991 c -0.64629,-1.39701 -2.26633,-2.15992 -3.77005,-1.51477 -3.13093,1.40245 -5.60551,1.84006 -8.84848,1.84006 -5.81665,0 -8.50954,-2.0476 -8.50954,-6.67607 0,-5.07729 2.25485,-6.36757 9.70016,-8.41532 8.30272,-2.25529 15.85432,-5.49795 15.85432,-17.68332 0,-11.20915 -6.36816,-16.17416 -19.09153,-16.17416" /><path
         id="path50"
         style="fill:#376177;fill-opacity:1;fill-rule:nonzero;stroke:none;stroke-width:1.43621"
         d="m 878.8903,284.68241 c -13.80197,0 -21.45983,9.06045 -21.45983,28.47169 0,20.5895 8.19644,28.34272 21.56611,28.34272 5.17179,0 9.26786,-1.17812 13.15568,-4.30302 1.28972,-0.97059 1.40173,-2.6929 0.4323,-3.88781 l -1.72345,-2.15992 c -1.08147,-1.17813 -2.80493,-1.29043 -3.9941,-0.31985 -2.37262,1.83462 -4.63322,2.80506 -8.19645,2.80506 -8.1907,0 -11.31589,-3.55117 -11.31589,-20.47718 0,-16.60614 3.45122,-20.60621 12.07421,-20.60621 3.33775,0 5.60409,1.29597 7.87043,3.1305 1.18343,0.96495 3.02322,0.86957 3.98835,-0.32539 l 1.94175,-2.04212 c 1.08291,-1.08276 0.97088,-2.9229 -0.21399,-3.88786 -3.55606,-3.12488 -7.98245,-4.74061 -14.12512,-4.74061" /><path
         id="path52"
         style="fill:#376177;fill-opacity:1;fill-rule:nonzero;stroke:none;stroke-width:1.43621"
         d="m 914.49249,286.08495 c -1.5152,0 -2.80636,1.29035 -2.80636,2.8051 v 72.45562 c 0,1.50356 1.29116,2.80506 2.80636,2.80506 h 3.66233 c 1.51521,0 2.80636,-1.3015 2.80636,-2.80506 V 334.0689 c 4.74523,4.41518 9.59819,7.42792 15.84856,7.42792 7.76415,0 13.04939,-3.98318 13.04939,-13.15595 v -39.45082 c 0,-1.51475 -1.29689,-2.8051 -2.80634,-2.8051 h -3.66809 c -1.5037,0 -2.80491,1.29035 -2.80491,2.8051 v 36.55039 c 0,6.14324 -1.72345,7.86555 -6.57065,7.86555 -4.31294,0 -9.1659,-3.01274 -13.04796,-6.46295 v -37.95299 c 0,-1.51475 -1.29115,-2.8051 -2.80636,-2.8051 h -3.66233" /><path
         id="path54"
         style="fill:#376177;fill-opacity:1;fill-rule:nonzero;stroke:none;stroke-width:1.43621"
         d="m 985.00026,284.68241 c -7.76985,0 -13.80049,4.41522 -13.80049,13.80107 v 38.82249 c 0,1.49797 1.28972,2.79386 2.79342,2.79386 h 3.66952 c 1.50946,0 2.80491,-1.29589 2.80491,-2.79386 v -35.90523 c 0,-6.36754 2.15432,-8.52744 7.00723,-8.52744 4.31439,0 8.9476,2.91729 12.93745,6.47969 v 37.95298 c 0,1.49797 1.2953,2.79386 2.8048,2.79386 h 3.6695 c 1.5081,0 2.7992,-1.29589 2.7992,-2.79386 v -48.41592 c 0,-1.51475 -1.2911,-2.8051 -2.7992,-2.8051 h -1.6214 c -1.6158,0 -3.0132,1.18937 -3.3435,2.6929 l -0.8646,4.00006 c -4.52121,-4.64525 -9.70022,-8.0955 -16.05684,-8.0955" /><path
         id="path56"
         style="fill:#376177;fill-opacity:1;fill-rule:nonzero;stroke:none;stroke-width:1.43621"
         d="m 1041.4734,285.00219 c -6.901,0 -9.8122,3.67467 -9.8122,13.16151 v 63.18197 c 0,1.50356 1.2898,2.80506 2.805,2.80506 h 3.6637 c 1.5138,0 2.805,-1.3015 2.805,-2.80506 v -64.90992 c 0,-2.69289 1.1834,-3.77565 3.77,-3.77565 0.4366,0 0.8632,0 1.1892,0.11778 0.5385,0 1.0771,-0.32539 1.1834,-0.87521 l 0.5386,-3.12487 c 0.326,-1.50353 -0.6449,-3.01267 -2.1543,-3.33807 -1.2955,-0.20758 -2.6987,-0.43758 -3.9884,-0.43758" /><path
         id="path58"
         style="fill:#376177;fill-opacity:1;fill-rule:nonzero;stroke:none;stroke-width:1.43621"
         d="m 1081.749,334.18107 c -6.2561,0 -10.1324,-3.24268 -10.8893,-16.19097 h 21.4526 c 0,12.41532 -2.7991,16.19097 -10.5633,16.19097 z m 1.1835,-49.49866 c -14.1209,0 -22.1048,8.19089 -22.1048,28.47169 0,20.47718 8.4105,28.34272 21.1397,28.34272 12.8253,0 20.1571,-7.31575 20.1571,-26.84475 v -1.93558 c 0,-0.96485 -0.7568,-1.7223 -1.722,-1.7223 h -29.6505 c 0.2083,-14.77162 3.4512,-18.4463 12.3988,-18.4463 4.6346,0 7.6579,1.40256 10.4527,3.3549 1.3013,0.96496 3.1295,0.64517 3.9941,-0.54979 l 1.7221,-2.2553 c 0.8646,-1.19498 0.6448,-3.02951 -0.6449,-3.88787 -4.4149,-3.12488 -8.949,-4.52742 -15.7423,-4.52742" /></g></g></svg>
