<?xml version="1.0" encoding="UTF-8" standalone="no"?>
<!-- Generator: Adobe Illustrator 23.0.6, SVG Export Plug-In . SVG Version: 6.00 Build 0)  -->

<svg
   version="1.1"
   id="Logo"
   x="0px"
   y="0px"
   viewBox="0 0 117.91999 52.709997"
   xml:space="preserve"
   sodipodi:docname="ost_wide.svg"
   width="353.76"
   height="158.129997"
   inkscape:version="1.1.1 (3bf5ae0d25, 2021-09-20)"
   xmlns:inkscape="http://www.inkscape.org/namespaces/inkscape"
   xmlns:sodipodi="http://sodipodi.sourceforge.net/DTD/sodipodi-0.dtd"
   xmlns="http://www.w3.org/2000/svg"
   xmlns:svg="http://www.w3.org/2000/svg"><defs
   id="defs83" /><sodipodi:namedview
   id="namedview81"
   pagecolor="#ffffff"
   bordercolor="#666666"
   borderopacity="1.0"
   inkscape:pageshadow="2"
   inkscape:pageopacity="0.0"
   inkscape:pagecheckerboard="0"
   showgrid="false"
   inkscape:zoom="8.3972029"
   inkscape:cx="59.007744"
   inkscape:cy="26.318288"
   inkscape:window-width="1916"
   inkscape:window-height="1041"
   inkscape:window-x="0"
   inkscape:window-y="18"
   inkscape:window-maximized="1"
   inkscape:current-layer="Logo"
   inkscape:snap-page="true"
   inkscape:snap-grids="false"
   inkscape:snap-bbox="true"
   inkscape:bbox-paths="true"
   inkscape:bbox-nodes="true"
   inkscape:snap-bbox-midpoints="true"
   inkscape:snap-bbox-edge-midpoints="true" />
<style
   type="text/css"
   id="style2">
	.st0{fill:#191919;}
	.st1{fill:#D72864;}
	.st2{fill:#8C195F;}
</style>
<g
   id="g78"
   transform="translate(-15.38,-15.38)">
	<g
   id="g10">
		<path
   class="st0"
   d="m 81.73,31.58 c -4.31,0 -7.69,3.33 -7.69,7.58 0,4.44 3.31,7.8 7.69,7.8 4.38,0 7.69,-3.35 7.69,-7.8 0,-4.25 -3.38,-7.58 -7.69,-7.58 z m 0,13.08 c -2.85,0 -5.08,-2.42 -5.08,-5.5 0,-2.97 2.23,-5.29 5.08,-5.29 2.85,0 5.08,2.32 5.08,5.29 -0.01,3.09 -2.24,5.5 -5.08,5.5 z"
   id="path4" />
		<path
   class="st0"
   d="m 97.83,38.19 c -1.52,-0.63 -2.84,-1.18 -2.84,-2.39 0,-1.09 1.02,-1.91 2.38,-1.91 1.64,0 2.94,0.96 3.3,1.26 l 1.09,-2.04 c -0.3,-0.27 -1.79,-1.53 -4.37,-1.53 -2.82,0 -4.95,1.84 -4.95,4.27 0,2.56 2.23,3.52 4.21,4.37 1.56,0.67 2.91,1.25 2.91,2.49 0,1.34 -1.15,1.93 -2.29,1.93 -1.89,0 -3.37,-1.21 -3.74,-1.54 l -1.37,1.89 c 0.34,0.34 2.13,1.96 5.07,1.96 2.86,0 4.87,-1.77 4.87,-4.31 -0.02,-2.69 -2.28,-3.62 -4.27,-4.45 z"
   id="path6" />
		<polygon
   class="st0"
   points="104.95,33.91 108.59,33.91 108.59,46.7 110.95,46.7 110.95,33.91 114.6,33.91 114.6,31.83 104.95,31.83 "
   id="polygon8" />
	</g>
	<g
   id="g64">
		<path
   class="st0"
   d="m 74.98,55.89 c 0,-1.73 0.95,-2.99 2.67,-2.99 1.7,0 2.52,1.26 2.52,2.87 0,1.89 -0.91,3.12 -2.63,3.12 -1.74,0 -2.56,-1.27 -2.56,-3 z m 4.64,-0.04 c 0,-1.6 -0.8,-2.48 -1.98,-2.48 -1.2,0 -2.1,0.89 -2.1,2.52 0,1.64 0.83,2.53 2.03,2.53 1.2,-0.01 2.05,-0.85 2.05,-2.57 z"
   id="path12" />
		<path
   class="st0"
   d="m 84.01,55.86 -0.53,0.06 c -0.1,-0.54 -0.25,-0.84 -0.92,-0.84 -0.71,0 -0.88,0.31 -0.88,0.66 0,0.48 0.36,0.59 0.98,0.74 0.75,0.18 1.42,0.34 1.42,1.23 0,0.7 -0.53,1.17 -1.51,1.17 -0.9,0 -1.46,-0.34 -1.58,-1.24 l 0.51,-0.09 c 0.11,0.49 0.3,0.86 1.09,0.86 0.54,0 0.94,-0.16 0.94,-0.68 0,-0.48 -0.33,-0.58 -0.93,-0.73 -0.68,-0.18 -1.48,-0.28 -1.48,-1.21 0,-0.79 0.68,-1.18 1.45,-1.18 0.99,0.01 1.34,0.5 1.44,1.25 z"
   id="path14" />
		<path
   class="st0"
   d="m 87.21,58.63 c -0.2,0.14 -0.6,0.26 -0.93,0.26 -0.73,0 -1.09,-0.33 -1.09,-1.09 V 55.16 H 84.55 V 54.7 h 0.64 v -1.17 l 0.54,-0.08 v 1.25 h 1.14 v 0.45 h -1.14 v 2.57 c 0,0.46 0.1,0.73 0.63,0.73 0.25,0 0.55,-0.1 0.73,-0.21 z"
   id="path16" />
		<path
   class="st0"
   d="m 90.7,55.86 -0.53,0.06 c -0.1,-0.54 -0.25,-0.84 -0.92,-0.84 -0.71,0 -0.88,0.31 -0.88,0.66 0,0.48 0.36,0.59 0.98,0.74 0.75,0.18 1.42,0.34 1.42,1.23 0,0.7 -0.53,1.17 -1.51,1.17 -0.9,0 -1.46,-0.34 -1.58,-1.24 l 0.51,-0.09 c 0.11,0.49 0.3,0.86 1.09,0.86 0.54,0 0.94,-0.16 0.94,-0.68 0,-0.48 -0.33,-0.58 -0.93,-0.73 -0.68,-0.18 -1.48,-0.28 -1.48,-1.21 0,-0.79 0.68,-1.18 1.45,-1.18 0.99,0.01 1.35,0.5 1.44,1.25 z"
   id="path18" />
		<path
   class="st0"
   d="m 91.6,56.77 c 0,-1.43 0.72,-2.15 1.94,-2.15 0.81,0 1.44,0.46 1.49,1.37 l -0.54,0.07 c -0.07,-0.66 -0.38,-0.98 -1,-0.98 -0.64,0 -1.33,0.35 -1.33,1.62 0,1.34 0.66,1.7 1.31,1.7 0.59,0 0.97,-0.26 1.08,-0.9 l 0.5,0.1 c -0.14,0.91 -0.86,1.28 -1.62,1.28 -1.33,0.01 -1.83,-0.87 -1.83,-2.11 z"
   id="path20" />
		<path
   class="st0"
   d="m 99.45,58.79 h -0.54 v -2.7 c 0,-0.62 -0.22,-0.99 -0.85,-0.99 -0.54,0 -1.11,0.36 -1.36,0.58 v 3.11 h -0.54 v -6.04 h 0.54 v 2.46 c 0.44,-0.33 0.94,-0.58 1.5,-0.58 0.87,0 1.24,0.49 1.24,1.41 v 2.75 z"
   id="path22" />
		<path
   class="st0"
   d="m 101.45,58.79 -1.31,-4.09 h 0.55 l 1.09,3.54 0.97,-3.54 h 0.58 l 0.95,3.53 1.08,-3.53 h 0.51 l -1.29,4.09 h -0.65 l -0.92,-3.49 -0.93,3.49 z"
   id="path24" />
		<path
   class="st0"
   d="m 106.38,56.75 c 0,-1.5 0.86,-2.13 1.9,-2.13 1.12,0 1.58,0.76 1.58,1.74 -0.01,0.16 -0.02,0.33 -0.04,0.5 h -2.86 c 0.03,1.22 0.6,1.55 1.31,1.55 0.64,0 0.9,-0.26 1.03,-0.78 l 0.5,0.1 c -0.18,0.81 -0.82,1.16 -1.58,1.16 -1.42,0 -1.84,-1.01 -1.84,-2.14 z m 2.91,-0.33 c 0.02,-0.84 -0.3,-1.33 -1.06,-1.33 -0.62,0 -1.23,0.38 -1.27,1.33 z"
   id="path26" />
		<path
   class="st0"
   d="m 111.31,53.71 c -0.27,0 -0.43,-0.15 -0.43,-0.42 0,-0.27 0.16,-0.42 0.43,-0.42 0.27,0 0.43,0.15 0.43,0.42 0,0.27 -0.16,0.42 -0.43,0.42 z m 0.26,5.08 h -0.54 V 54.7 h 0.54 z"
   id="path28" />
		<path
   class="st0"
   d="m 113.13,58.34 h 2.55 v 0.45 h -3.17 v -0.38 l 2.46,-3.26 h -2.42 V 54.7 h 3.05 v 0.38 z"
   id="path30" />
		<path
   class="st0"
   d="m 116.22,56.75 c 0,-1.5 0.86,-2.13 1.9,-2.13 1.12,0 1.58,0.76 1.58,1.74 -0.01,0.16 -0.02,0.33 -0.04,0.5 h -2.86 c 0.03,1.22 0.6,1.55 1.31,1.55 0.64,0 0.9,-0.26 1.03,-0.78 l 0.5,0.1 c -0.18,0.81 -0.82,1.16 -1.58,1.16 -1.43,0 -1.84,-1.01 -1.84,-2.14 z m 2.91,-0.33 c 0.02,-0.84 -0.3,-1.33 -1.06,-1.33 -0.62,0 -1.23,0.38 -1.27,1.33 z"
   id="path32" />
		<path
   class="st0"
   d="m 122.87,55.18 c -0.5,-0.09 -1.14,0.14 -1.47,0.47 v 3.13 h -0.54 V 54.7 h 0.44 l 0.05,0.57 c 0.39,-0.53 0.83,-0.66 1.39,-0.65 0.04,0 0.08,0 0.13,0 z"
   id="path34" />
		<path
   class="st0"
   d="M 75.92,67.99 H 75.38 V 62.2 h 3.27 v 0.46 h -2.73 v 2.25 h 2.54 v 0.47 h -2.54 z"
   id="path36" />
		<path
   class="st0"
   d="m 82.2,67.33 c 0,0.22 0.04,0.32 0.25,0.32 0.07,0 0.14,-0.02 0.25,-0.05 l 0.03,0.34 c -0.16,0.08 -0.3,0.11 -0.49,0.11 -0.38,0 -0.51,-0.23 -0.53,-0.51 -0.3,0.32 -0.78,0.54 -1.36,0.54 -1.04,0 -1.21,-0.71 -1.21,-1.1 0,-1.16 1.06,-1.38 1.98,-1.38 0.23,0 0.38,0.01 0.54,0.02 v -0.41 c 0,-0.62 -0.18,-0.96 -0.89,-0.96 -0.65,0 -0.87,0.26 -0.96,0.74 l -0.5,-0.09 c 0.13,-0.76 0.62,-1.08 1.5,-1.08 0.98,0 1.39,0.38 1.39,1.4 z m -0.53,-1.27 c -0.13,-0.02 -0.27,-0.02 -0.5,-0.02 -0.56,0 -1.46,0.04 -1.46,0.87 0,0.4 0.14,0.75 0.78,0.75 0.47,0 0.93,-0.26 1.19,-0.56 v -1.04 z"
   id="path38" />
		<path
   class="st0"
   d="m 83.3,65.98 c 0,-1.43 0.72,-2.15 1.94,-2.15 0.81,0 1.44,0.46 1.49,1.37 l -0.54,0.07 c -0.07,-0.66 -0.38,-0.98 -1,-0.98 -0.64,0 -1.33,0.35 -1.33,1.62 0,1.34 0.66,1.7 1.31,1.7 0.59,0 0.97,-0.26 1.08,-0.9 l 0.5,0.1 c -0.14,0.91 -0.86,1.28 -1.62,1.28 -1.33,0 -1.83,-0.88 -1.83,-2.11 z"
   id="path40" />
		<path
   class="st0"
   d="m 91.15,67.99 h -0.54 v -2.7 c 0,-0.62 -0.22,-0.99 -0.85,-0.99 -0.54,0 -1.11,0.36 -1.36,0.58 v 3.11 h -0.54 v -6.04 h 0.54 v 2.46 c 0.44,-0.33 0.94,-0.58 1.5,-0.58 0.87,0 1.24,0.49 1.24,1.41 v 2.75 z"
   id="path42" />
		<path
   class="st0"
   d="m 95.81,67.99 h -0.54 v -2.7 c 0,-0.62 -0.22,-0.99 -0.85,-0.99 -0.54,0 -1.11,0.36 -1.36,0.58 v 3.11 h -0.54 v -6.04 h 0.54 v 2.46 c 0.44,-0.33 0.94,-0.58 1.5,-0.58 0.87,0 1.24,0.49 1.24,1.41 v 2.75 z"
   id="path44" />
		<path
   class="st0"
   d="m 96.9,65.97 c 0,-1.33 0.69,-2.14 1.94,-2.14 1.25,0 1.77,0.82 1.77,2.04 0,1.34 -0.54,2.22 -1.87,2.22 -1.38,0 -1.84,-0.92 -1.84,-2.12 z m 3.15,-0.06 c 0,-1.21 -0.46,-1.62 -1.24,-1.62 -0.81,0 -1.36,0.5 -1.36,1.65 0,1.14 0.44,1.7 1.33,1.7 0.79,-0.01 1.27,-0.49 1.27,-1.73 z"
   id="path46" />
		<path
   class="st0"
   d="m 101.5,65.98 c 0,-1.43 0.72,-2.15 1.94,-2.15 0.81,0 1.44,0.46 1.49,1.37 l -0.54,0.07 c -0.07,-0.66 -0.38,-0.98 -1,-0.98 -0.64,0 -1.33,0.35 -1.33,1.62 0,1.34 0.66,1.7 1.31,1.7 0.59,0 0.97,-0.26 1.08,-0.9 l 0.5,0.1 c -0.14,0.91 -0.86,1.28 -1.62,1.28 -1.34,0 -1.83,-0.88 -1.83,-2.11 z"
   id="path48" />
		<path
   class="st0"
   d="m 109.34,67.99 h -0.54 v -2.7 c 0,-0.62 -0.22,-0.99 -0.85,-0.99 -0.54,0 -1.11,0.36 -1.36,0.58 v 3.11 h -0.54 v -6.04 h 0.54 v 2.46 c 0.44,-0.33 0.94,-0.58 1.5,-0.58 0.87,0 1.24,0.49 1.24,1.41 v 2.75 z"
   id="path50" />
		<path
   class="st0"
   d="m 113.39,65.06 -0.53,0.06 c -0.1,-0.54 -0.25,-0.84 -0.92,-0.84 -0.71,0 -0.88,0.31 -0.88,0.66 0,0.48 0.36,0.59 0.98,0.74 0.75,0.18 1.42,0.34 1.42,1.23 0,0.7 -0.53,1.17 -1.51,1.17 -0.9,0 -1.46,-0.34 -1.58,-1.24 l 0.51,-0.09 c 0.11,0.49 0.3,0.86 1.09,0.86 0.54,0 0.94,-0.16 0.94,-0.68 0,-0.48 -0.33,-0.58 -0.93,-0.73 -0.68,-0.18 -1.48,-0.28 -1.48,-1.21 0,-0.79 0.68,-1.18 1.45,-1.18 0.99,0.01 1.34,0.5 1.44,1.25 z"
   id="path52" />
		<path
   class="st0"
   d="m 114.29,65.98 c 0,-1.43 0.72,-2.15 1.94,-2.15 0.81,0 1.44,0.46 1.49,1.37 l -0.54,0.07 c -0.07,-0.66 -0.38,-0.98 -1,-0.98 -0.64,0 -1.33,0.35 -1.33,1.62 0,1.34 0.66,1.7 1.31,1.7 0.59,0 0.97,-0.26 1.08,-0.9 l 0.5,0.1 c -0.14,0.91 -0.86,1.28 -1.62,1.28 -1.34,0 -1.83,-0.88 -1.83,-2.11 z"
   id="path54" />
		<path
   class="st0"
   d="m 122.13,67.99 h -0.54 v -2.7 c 0,-0.62 -0.22,-0.99 -0.85,-0.99 -0.54,0 -1.11,0.36 -1.36,0.58 v 3.11 h -0.54 v -6.04 h 0.54 v 2.46 c 0.44,-0.33 0.94,-0.58 1.5,-0.58 0.87,0 1.24,0.49 1.24,1.41 v 2.75 z"
   id="path56" />
		<path
   class="st0"
   d="m 123.5,63.9 h 0.54 v 2.7 c 0,0.62 0.19,0.99 0.82,0.99 0.54,0 1.11,-0.36 1.36,-0.58 V 63.9 h 0.54 v 4.09 h -0.47 l -0.03,-0.51 c -0.44,0.33 -0.97,0.59 -1.54,0.59 -0.87,0 -1.21,-0.49 -1.21,-1.41 V 63.9 Z"
   id="path58" />
		<path
   class="st0"
   d="m 128.7,67.99 h -0.54 v -6.04 h 0.54 z"
   id="path60" />
		<path
   class="st0"
   d="m 129.82,65.95 c 0,-1.5 0.86,-2.13 1.9,-2.13 1.12,0 1.58,0.76 1.58,1.74 -0.01,0.16 -0.02,0.33 -0.04,0.5 h -2.86 c 0.03,1.22 0.6,1.55 1.31,1.55 0.64,0 0.9,-0.26 1.03,-0.78 l 0.5,0.1 c -0.18,0.81 -0.82,1.16 -1.58,1.16 -1.42,0 -1.84,-1.01 -1.84,-2.14 z m 2.91,-0.33 c 0.02,-0.84 -0.3,-1.34 -1.06,-1.34 -0.62,0 -1.23,0.38 -1.27,1.34 z"
   id="path62" />
	</g>
	<g
   id="g76">
		<path
   class="st0"
   d="m 56.57,22.51 c -4.37,-4.4 -10.42,-7.13 -17.1,-7.13 -13.29,0 -24.09,10.81 -24.09,24.09 0,13.29 10.81,24.09 24.09,24.09 6.64,0 12.67,-2.7 17.03,-7.06 4.36,-4.36 11.97,-10.39 11.97,-17.03 0.01,-6.6 -7.57,-12.6 -11.9,-16.96 z m -1.21,30.64 c -3.49,3.49 -8.31,5.65 -13.62,5.65 -0.6,0 -1.19,-0.03 -1.77,-0.08 -0.3,-0.03 -0.59,-0.06 -0.89,-0.1 -0.58,0.08 -1.17,0.14 -1.77,0.16 -0.29,0.01 -0.59,0.02 -0.89,0.02 -10.63,0 -19.28,-8.65 -19.28,-19.28 0,-10.63 8.65,-19.28 19.28,-19.28 0.3,0 0.59,0.01 0.88,0.02 0.6,0.03 1.19,0.08 1.77,0.16 0.29,-0.04 0.59,-0.08 0.88,-0.1 0.58,-0.05 1.17,-0.08 1.77,-0.08 5.34,0 10.18,2.18 13.68,5.71 3.46,3.49 9.53,8.28 9.53,13.57 0.01,5.32 -6.08,10.14 -9.57,13.63 z"
   id="path66" />
		<path
   class="st1"
   d="m 22.46,39.52 c 0,-9.73 7.01,-17.59 16.62,-19.09 v 0 c -11.85,0.28 -20.16,8.76 -20.16,19.09 0,10.33 9.96,19.37 20.16,19.09 0,0 -0.58,0.08 0,0 -9.37,-1.3 -16.62,-9.36 -16.62,-19.09 z"
   id="path68" />
		<path
   class="st2"
   d="m 51.82,53.15 c -3.55,3.56 -8.13,5.04 -12.74,5.46 0.29,0.04 0.59,0.08 0.89,0.1 0.58,0.05 1.17,0.08 1.77,0.08 5.31,0 10.13,-2.16 13.62,-5.65 3.49,-3.49 9.58,-8.31 9.58,-13.62 0,-5.29 -6.07,-10.08 -9.53,-13.57 -3.49,-3.52 -8.34,-5.71 -13.68,-5.71 -0.6,0 -1.19,0.03 -1.77,0.08 -0.3,0.03 -0.59,0.06 -0.88,0.1 4.64,0.42 9.69,2.39 12.79,5.52 3.46,3.49 9.53,8.28 9.53,13.57 0,5.33 -6.09,10.15 -9.58,13.64 z"
   id="path70" />
		<path
   class="st2"
   d="m 18.92,39.52 c 0,-10.33 8.31,-18.8 20.16,-19.09 -0.58,-0.08 -1.17,-0.14 -1.77,-0.16 -0.29,-0.01 -0.59,-0.02 -0.88,-0.02 -10.63,0 -19.28,8.65 -19.28,19.28 0,10.63 8.65,19.28 19.28,19.28 0.3,0 0.59,-0.01 0.89,-0.02 0.6,-0.03 1.19,-0.08 1.77,-0.16 C 28.9,58.89 18.92,49.86 18.92,39.52 Z"
   id="path72" />
		<path
   class="st1"
   d="m 50.05,53.15 c -2.9,2.9 -6.71,4.87 -10.97,5.46 4.61,-0.42 9.18,-1.91 12.74,-5.46 3.49,-3.49 9.58,-8.31 9.58,-13.62 0,-5.29 -6.07,-10.08 -9.53,-13.57 -3.1,-3.13 -8.16,-5.09 -12.79,-5.52 4.28,0.59 8.12,2.59 11.02,5.52 3.46,3.49 9.53,8.28 9.53,13.57 0,5.31 -6.09,10.13 -9.58,13.62 z"
   id="path74" />
	</g>
</g>
</svg>
