<?xml version="1.0" encoding="UTF-8" standalone="no"?>
<!-- Created with Inkscape (http://www.inkscape.org/) -->

<svg
   xmlns:dc="http://purl.org/dc/elements/1.1/"
   xmlns:cc="http://creativecommons.org/ns#"
   xmlns:rdf="http://www.w3.org/1999/02/22-rdf-syntax-ns#"
   xmlns:svg="http://www.w3.org/2000/svg"
   xmlns="http://www.w3.org/2000/svg"
   xmlns:sodipodi="http://sodipodi.sourceforge.net/DTD/sodipodi-0.dtd"
   xmlns:inkscape="http://www.inkscape.org/namespaces/inkscape"
   version="1.1"
   id="svg2"
   xml:space="preserve"
   width="188.976"
   height="32.430267"
   viewBox="0 0 188.976 32.430267"
   sodipodi:docname="satwLogoClaimrechts_4C.svg"
   inkscape:version="0.92.5 (2060ec1f9f, 2020-04-08)"><metadata
     id="metadata8"><rdf:RDF><cc:Work
         rdf:about=""><dc:format>image/svg+xml</dc:format><dc:type
           rdf:resource="http://purl.org/dc/dcmitype/StillImage" /><dc:title></dc:title></cc:Work></rdf:RDF></metadata><defs
     id="defs6" /><sodipodi:namedview
     pagecolor="#ffffff"
     bordercolor="#666666"
     borderopacity="1"
     objecttolerance="10"
     gridtolerance="10"
     guidetolerance="10"
     inkscape:pageopacity="0"
     inkscape:pageshadow="2"
     inkscape:window-width="640"
     inkscape:window-height="480"
     id="namedview4"
     showgrid="false"
     showborder="false"
     fit-margin-top="0"
     fit-margin-left="0"
     fit-margin-right="0"
     fit-margin-bottom="0"
     inkscape:zoom="2.0690751"
     inkscape:cx="94.486664"
     inkscape:cy="16.213331"
     inkscape:window-x="0"
     inkscape:window-y="0"
     inkscape:window-maximized="0"
     inkscape:current-layer="g10" /><g
     id="g10"
     inkscape:groupmode="layer"
     inkscape:label="ink_ext_XXXXXX"
     transform="matrix(1.3333333,0,0,-1.3333333,0,32.430266)"><g
       id="g12"
       transform="scale(0.1)"><path
         d="m 853.02,188.324 h 9.16 v -49.699 h -9.16 z m 9.742,11.11 H 852.43 v 10.324 h 10.332 v -10.324"
         style="fill:#868484;fill-opacity:1;fill-rule:nonzero;stroke:none"
         id="path14"
         inkscape:connector-curvature="0" /><path
         d="M 906.34,180.914 H 893.18 V 153.73 c 0,-5.75 3.504,-8.867 7.695,-8.867 2.828,0 4.875,0.875 6.234,1.75 v -7.793 c -2.046,-0.586 -4.863,-1.367 -7.789,-1.367 -9.453,0 -15.3,4.485 -15.3,14.426 v 29.035 h -11.204 v 7.41 h 11.204 v 11.496 l 9.16,2.922 v -14.418 h 13.16 v -7.41"
         style="fill:#868484;fill-opacity:1;fill-rule:nonzero;stroke:none"
         id="path16"
         inkscape:connector-curvature="0" /><path
         d="m 922.238,206.641 h 10.817 l -8.282,-23.875 h -8.675 l 6.14,23.875"
         style="fill:#868484;fill-opacity:1;fill-rule:nonzero;stroke:none"
         id="path18"
         inkscape:connector-curvature="0" /><path
         d="m 943.207,148.371 c 3.606,-2.336 8.77,-3.508 11.406,-3.508 4.188,0 9.348,1.75 9.348,7.114 0,9.062 -21.535,8.281 -21.535,22.214 0,10.332 7.703,15.301 17.539,15.301 4.293,0 7.797,-0.879 11.406,-1.949 l -0.781,-7.988 c -2.047,1.265 -7.504,2.531 -9.645,2.531 -4.683,0 -8.769,-1.945 -8.769,-6.043 0,-10.133 21.527,-7.211 21.527,-23.094 0,-10.621 -8.473,-15.496 -17.34,-15.496 -4.683,0 -9.453,0.492 -13.644,2.731 l 0.488,8.187"
         style="fill:#868484;fill-opacity:1;fill-rule:nonzero;stroke:none"
         id="path20"
         inkscape:connector-curvature="0" /><path
         d="m 1043.42,162.305 c -1.95,0 -3.91,0.195 -5.86,0.195 -4.97,0 -17.24,-0.781 -17.24,-9.551 0,-5.258 5.06,-8.086 9.25,-8.086 9.07,0 13.85,5.649 13.85,13.059 z m -27.2,22.508 c 4.58,2.73 10.04,4.679 16.37,4.679 14.24,0 19.99,-7.015 19.99,-20.558 v -20.563 c 0,-5.652 0.19,-8.285 0.38,-9.746 h -8.57 v 6.434 h -0.2 c -2.14,-3.024 -7.01,-7.606 -15.4,-7.606 -10.71,0 -18.21,4.68 -18.21,15.496 0,12.473 13.63,16.375 23.09,16.375 3.61,0 6.14,0 9.75,-0.195 0,8.574 -3.13,12.957 -12.28,12.957 -5.17,0 -10.73,-1.945 -14.43,-5.066 l -0.49,7.793"
         style="fill:#868484;fill-opacity:1;fill-rule:nonzero;stroke:none"
         id="path22"
         inkscape:connector-curvature="0" /><path
         d="m 1070.24,211.711 h 9.16 v -73.086 h -9.16 v 73.086"
         style="fill:#868484;fill-opacity:1;fill-rule:nonzero;stroke:none"
         id="path24"
         inkscape:connector-curvature="0" /><path
         d="m 1098.32,211.711 h 9.16 v -73.086 h -9.16 v 73.086"
         style="fill:#868484;fill-opacity:1;fill-rule:nonzero;stroke:none"
         id="path26"
         inkscape:connector-curvature="0" /><path
         d="m 1182.84,162.305 c -1.95,0 -3.9,0.195 -5.85,0.195 -4.97,0 -17.25,-0.781 -17.25,-9.551 0,-5.258 5.07,-8.086 9.26,-8.086 9.07,0 13.84,5.649 13.84,13.059 z m -27.18,22.508 c 4.57,2.73 10.03,4.679 16.36,4.679 14.23,0 19.98,-7.015 19.98,-20.558 v -20.563 c 0,-5.652 0.2,-8.285 0.39,-9.746 h -8.58 v 6.434 h -0.19 c -2.14,-3.024 -7.02,-7.606 -15.4,-7.606 -10.72,0 -18.22,4.68 -18.22,15.496 0,12.473 13.64,16.375 23.1,16.375 3.6,0 6.13,0 9.74,-0.195 0,8.574 -3.12,12.957 -12.28,12.957 -5.16,0 -10.72,-1.945 -14.42,-5.066 l -0.48,7.793"
         style="fill:#868484;fill-opacity:1;fill-rule:nonzero;stroke:none"
         id="path28"
         inkscape:connector-curvature="0" /><path
         d="m 1232.37,182.086 c -9.93,0 -14.71,-9.449 -14.71,-18.711 0,-8.281 4.28,-18.512 14.61,-18.512 9.85,0 13.94,11.012 13.74,18.805 0.2,8.969 -3.7,18.418 -13.64,18.418 z m -23.87,29.625 h 9.16 V 181.5 h 0.19 c 2.83,4.578 7.8,7.992 16.47,7.992 14.42,0 21.44,-11.789 21.44,-25.14 0,-13.645 -6.34,-26.899 -21.34,-26.899 -8.87,0 -14.52,4.485 -16.95,8.192 h -0.2 v -7.02 h -8.77 v 73.086"
         style="fill:#868484;fill-opacity:1;fill-rule:nonzero;stroke:none"
         id="path30"
         inkscape:connector-curvature="0" /><path
         d="m 1291.06,144.863 c 10.72,0 15.5,9.742 15.5,18.614 0,9.449 -5.75,18.609 -15.5,18.609 -9.84,0 -15.59,-9.16 -15.59,-18.609 0,-8.872 4.77,-18.614 15.59,-18.614 z m 0,44.629 c 15.11,0 25.24,-10.914 25.24,-26.015 0,-14.231 -10.33,-26.024 -25.24,-26.024 -15.01,0 -25.33,11.793 -25.33,26.024 0,15.101 10.13,26.015 25.33,26.015"
         style="fill:#868484;fill-opacity:1;fill-rule:nonzero;stroke:none"
         id="path32"
         inkscape:connector-curvature="0" /><path
         d="m 1373.53,138.625 h -8.86 v 7.895 h -0.2 c -2.73,-5.653 -9.35,-9.067 -16.27,-9.067 -12.87,0 -18.62,7.996 -18.62,21.344 v 29.527 h 9.17 v -25.726 c 0,-11.594 2.53,-17.25 10.52,-17.735 10.43,0 15.1,8.379 15.1,20.461 v 23 h 9.16 v -49.699"
         style="fill:#868484;fill-opacity:1;fill-rule:nonzero;stroke:none"
         id="path34"
         inkscape:connector-curvature="0" /><path
         d="m 1416.54,180.914 h -13.16 V 153.73 c 0,-5.75 3.51,-8.867 7.7,-8.867 2.83,0 4.88,0.875 6.24,1.75 v -7.793 c -2.05,-0.586 -4.87,-1.367 -7.8,-1.367 -9.45,0 -15.3,4.485 -15.3,14.426 v 29.035 h -11.21 v 7.41 h 11.21 v 11.496 l 9.16,2.922 v -14.418 h 13.16 v -7.41"
         style="fill:#868484;fill-opacity:1;fill-rule:nonzero;stroke:none"
         id="path36"
         inkscape:connector-curvature="0" /><path
         d="m 878.262,63.918 h -13.16 V 36.7344 c 0,-5.7539 3.503,-8.8672 7.695,-8.8672 2.828,0 4.875,0.8789 6.234,1.7539 v -7.7969 c -2.047,-0.582 -4.863,-1.3633 -7.789,-1.3633 -9.453,0 -15.301,4.4844 -15.301,14.4258 V 63.918 h -11.207 v 7.4062 h 11.207 v 11.5 l 9.161,2.9258 V 71.3242 h 13.16 V 63.918"
         style="fill:#868484;fill-opacity:1;fill-rule:nonzero;stroke:none"
         id="path38"
         inkscape:connector-curvature="0" /><path
         d="m 922.906,51.2539 c 0,7.5977 -4.484,13.8359 -12.379,13.8359 -8.957,0 -12.664,-7.4101 -13.347,-13.8359 z m 5.942,-27.5742 c -3.504,-1.2656 -7.504,-3.2188 -15.692,-3.2188 -17.633,0 -25.718,10.7227 -25.718,26.8985 0,14.7109 9.257,25.1367 23.292,25.1367 16.555,0 21.918,-12.082 21.918,-28.0586 H 897.18 c 0,-9.8477 7.691,-16.5703 16.367,-16.5703 6.047,0 13.062,3.1133 15.301,4.9726 v -9.1601"
         style="fill:#868484;fill-opacity:1;fill-rule:nonzero;stroke:none"
         id="path40"
         inkscape:connector-curvature="0" /><path
         d="m 977.504,62.9453 c -3.504,1.4649 -7.012,2.1445 -9.934,2.1445 -10.234,0 -15.984,-9.1601 -15.984,-18.6054 0,-8.875 4.777,-18.6172 16.566,-18.6172 3.114,0 7.016,0.9726 9.844,2.8281 l 0.676,-8.1875 c -3.797,-1.75 -8.18,-2.0469 -11.492,-2.0469 -15.016,0 -25.336,11.7891 -25.336,26.0235 0,15.1015 10.133,26.0117 25.336,26.0117 3.695,0 8.472,-0.8789 11.101,-1.9531 l -0.777,-7.5977"
         style="fill:#868484;fill-opacity:1;fill-rule:nonzero;stroke:none"
         id="path42"
         inkscape:connector-curvature="0" /><path
         d="m 990.195,94.7188 h 9.168 V 64.2109 h 0.192 c 3.315,5.2657 9.065,8.2852 15.975,8.2852 12.86,0 18.61,-7.9883 18.61,-21.3398 V 21.6328 h -9.16 v 25.7266 c 0,11.5976 -2.53,17.2422 -10.52,17.7304 -10.42,0 -15.097,-8.3789 -15.097,-20.4609 V 21.6328 h -9.168 v 73.086"
         style="fill:#868484;fill-opacity:1;fill-rule:nonzero;stroke:none"
         id="path44"
         inkscape:connector-curvature="0" /><path
         d="m 1050.74,71.3242 h 8.87 v -7.8945 h 0.19 c 2.74,5.6562 9.36,9.0664 16.28,9.0664 12.86,0 18.61,-7.9883 18.61,-21.3398 V 21.6328 h -9.16 v 25.7266 c 0,11.5976 -2.53,17.2422 -10.52,17.7304 -10.43,0 -15.1,-8.3789 -15.1,-20.4609 V 21.6328 h -9.17 v 49.6914"
         style="fill:#868484;fill-opacity:1;fill-rule:nonzero;stroke:none"
         id="path46"
         inkscape:connector-curvature="0" /><path
         d="m 1133.31,27.8672 c 10.72,0 15.49,9.7422 15.49,18.6172 0,9.4453 -5.75,18.6054 -15.49,18.6054 -9.85,0 -15.6,-9.1601 -15.6,-18.6054 0,-8.875 4.78,-18.6172 15.6,-18.6172 z m 0,44.6289 c 15.1,0 25.24,-10.9102 25.24,-26.0117 0,-14.2344 -10.33,-26.0235 -25.24,-26.0235 -15.01,0 -25.34,11.7891 -25.34,26.0235 0,15.1015 10.13,26.0117 25.34,26.0117"
         style="fill:#868484;fill-opacity:1;fill-rule:nonzero;stroke:none"
         id="path48"
         inkscape:connector-curvature="0" /><path
         d="m 1173,94.7188 h 9.16 V 21.6328 H 1173 v 73.086"
         style="fill:#868484;fill-opacity:1;fill-rule:nonzero;stroke:none"
         id="path50"
         inkscape:connector-curvature="0" /><path
         d="m 1221.93,27.8672 c 10.72,0 15.5,9.7422 15.5,18.6172 0,9.4453 -5.75,18.6054 -15.5,18.6054 -9.83,0 -15.58,-9.1601 -15.58,-18.6054 0,-8.875 4.77,-18.6172 15.58,-18.6172 z m 0,44.6289 c 15.11,0 25.24,-10.9102 25.24,-26.0117 0,-14.2344 -10.33,-26.0235 -25.24,-26.0235 -15,0 -25.32,11.7891 -25.32,26.0235 0,15.1015 10.13,26.0117 25.32,26.0117"
         style="fill:#868484;fill-opacity:1;fill-rule:nonzero;stroke:none"
         id="path52"
         inkscape:connector-curvature="0" /><path
         d="m 1295.25,45.8945 c 0,10.3282 -4.77,19.1953 -14.52,19.1953 -9.26,0 -13.84,-10.039 -13.84,-18.5117 0,-9.3593 5.27,-17.539 13.84,-17.539 8.58,0 14.52,7.5976 14.52,16.8554 z m 9.16,-22.1211 C 1304.41,8.67578 1296.61,0 1278.78,0 c -5.26,0 -9.84,0.675781 -17.83,3.41016 l 0.97,8.47264 c 7.02,-3.20702 11.21,-4.47655 17.93,-4.47655 9.65,0 15.4,6.52345 15.4,17.05465 v 4.8633 h -0.19 c -3.91,-5.1601 -10.33,-7.6914 -16.67,-7.6914 -14.23,0 -21.24,11.5977 -21.24,24.461 0,12.7578 7.21,26.4023 22.22,26.4023 8.76,0 13.64,-3.2188 16.36,-8.5781 h 0.2 v 7.4062 h 8.48 V 23.7734"
         style="fill:#868484;fill-opacity:1;fill-rule:nonzero;stroke:none"
         id="path54"
         inkscape:connector-curvature="0" /><path
         d="m 1317.31,8.17969 c 1.16,-0.39063 2.72,-0.77344 4.28,-0.77344 8.19,0 10.91,11.30465 10.91,12.27345 0,1.0781 -1.17,3.6094 -1.75,5.2656 l -16.86,46.3789 h 10.04 l 13.35,-41.1211 h 0.19 l 13.65,41.1211 h 9.25 L 1342.05,20.5586 C 1338.65,11.0078 1335.04,0 1322.95,0 c -2.92,0 -4.58,0.390625 -6.23,0.675781 l 0.59,7.503909"
         style="fill:#868484;fill-opacity:1;fill-rule:nonzero;stroke:none"
         id="path56"
         inkscape:connector-curvature="0" /><path
         d="M 4.48047,67.6211 C 17.9102,61.8711 37.7422,56.1094 58.5313,56.1094 c 11.8359,0 23.3515,1.914 23.3515,13.4336 C 81.8828,97.6875 0,77.8555 0,137.992 c 0,38.387 37.7422,54.059 71.0117,54.059 19.8281,0 39.9763,-2.238 58.5313,-9.598 l -4.48,-39.98 c -12.153,7.355 -30.3833,11.191 -44.7778,11.191 -12.4727,0 -26.5469,-2.238 -26.5469,-11.512 0,-25.91 85.7227,-5.441 85.7227,-68.7692 0,-44.4687 -39.9883,-55.6523 -77.7305,-55.6523 -25.9063,0 -43.4961,2.5508 -60.44925,7.9883 l 3.19922,41.9023"
         style="fill:#127bca;fill-opacity:1;fill-rule:nonzero;stroke:none"
         id="path58"
         inkscape:connector-curvature="0" /><path
         d="m 230.586,56.1094 c 21.754,0 35.508,19.832 35.508,39.3398 -7.356,0.3164 -15.672,0.9649 -24.309,0.9649 -19.515,0 -34.867,-6.086 -34.867,-22.0703 0,-11.5235 10.234,-18.2344 23.668,-18.2344 z m 39.66,-34.543 c -0.316,8.9492 -1.273,17.5859 -1.273,26.2227 h -0.645 C 255.219,27.0039 239.223,17.7305 215.555,17.7305 c -32.946,0 -62.371,16.3086 -62.371,52.4531 0,50.8554 55.332,56.9334 86.039,56.9334 9.281,0 19.515,-0.961 26.871,-2.234 -0.321,22.707 -17.274,28.781 -38.063,28.781 -18.551,0 -37.105,-3.516 -53.097,-12.473 l -0.961,39.024 c 20.472,8.316 41.906,11.836 66.531,11.836 42.543,0 79.328,-18.235 79.328,-69.094 V 60.9063 c 0,-13.1172 0.637,-26.2305 3.191,-39.3399 h -52.777"
         style="fill:#127bca;fill-opacity:1;fill-rule:nonzero;stroke:none"
         id="path60"
         inkscape:connector-curvature="0" /><path
         d="m 335.461,188.211 h 33.902 v 37.426 l 56.617,17.59 v -55.016 h 40.301 V 147.91 H 425.98 V 86.4922 c 0,-20.1484 4.797,-30.3828 23.028,-30.3828 5.758,0 11.832,1.2773 17.594,2.2383 l 1.918,-37.418 c -10.879,-1.2852 -21.75,-3.1992 -36.141,-3.1992 -51.496,0 -63.977,22.707 -63.977,62.3633 V 147.91 h -32.941 v 40.301"
         style="fill:#127bca;fill-opacity:1;fill-rule:nonzero;stroke:none"
         id="path62"
         inkscape:connector-curvature="0" /><path
         d="m 477.129,188.211 h 60.133 L 564.129,68.2578 h 0.637 l 28.789,119.9532 h 69.086 L 690.793,68.2578 h 0.637 l 26.23,119.9532 h 55.649 L 722.461,21.5664 H 655.605 L 627.461,142.152 h -0.645 L 595.152,21.5664 H 528.305 L 477.129,188.211"
         style="fill:#127bca;fill-opacity:1;fill-rule:nonzero;stroke:none"
         id="path64"
         inkscape:connector-curvature="0" /></g></g></svg>